<svg width="14" height="14" viewBox="0 0 14 14" fill="none" xmlns="http://www.w3.org/2000/svg">
<path d="M1.04936 1.05025C0.658832 1.44078 0.658833 2.07394 1.04936 2.46447L5.58489 7L1.04936 11.5355C0.658832 11.9261 0.658832 12.5592 1.04936 12.9497C1.43988 13.3403 2.07305 13.3403 2.46357 12.9497L6.9991 8.41421L11.5346 12.9497C11.9252 13.3403 12.5583 13.3403 12.9489 12.9497C13.3394 12.5592 13.3394 11.9261 12.9489 11.5355L8.41332 7L12.9489 2.46447C13.3394 2.07394 13.3394 1.44078 12.9489 1.05025C12.5583 0.659727 11.9252 0.659729 11.5346 1.05025L6.9991 5.58579L2.46357 1.05025C2.07305 0.659729 1.43988 0.659728 1.04936 1.05025Z" fill="currentColor"/>
</svg>
