<svg width="24" height="24" viewBox="0 0 24 24" fill="none" xmlns="http://www.w3.org/2000/svg">
<rect opacity="0.01" y="24" width="24" height="24" transform="rotate(-90 0 24)" fill="black"/>
<path d="M19.9934 11.0001H6.99339L8.59339 9.80006C9.03522 9.46869 9.12476 8.84189 8.79339 8.40006C8.46202 7.95823 7.83522 7.86869 7.39339 8.20006L3.39339 11.2001C3.14548 11.3892 3 11.6832 3 11.9951C3 12.3069 3.14548 12.6009 3.39339 12.7901L7.25339 15.7901C7.42794 15.9255 7.64244 15.9994 7.86339 16.0001C8.17289 15.9993 8.4646 15.8553 8.65339 15.6101C8.99145 15.1761 8.91549 14.5505 8.48339 14.2101L6.91339 13.0001H19.9934C20.5457 13.0001 20.9934 12.5523 20.9934 12.0001C20.9934 11.4478 20.5457 11.0001 19.9934 11.0001Z" fill="#8A959D"/>
</svg>
