<svg width="18" height="18" viewBox="0 0 18 18" fill="none" xmlns="http://www.w3.org/2000/svg">
<path fill-rule="evenodd" clip-rule="evenodd" d="M14.3054 12.8958L17.7043 16.2848C17.8935 16.4725 18 16.728 18 16.9945C18 17.2611 17.8935 17.5166 17.7043 17.7043C17.5166 17.8936 17.2611 18 16.9945 18C16.728 18 16.4725 17.8936 16.2848 17.7043L12.8958 14.3054C11.4988 15.402 9.77351 15.9971 7.99742 15.9948C3.58057 15.9948 0 12.4143 0 7.99742C0 3.58057 3.58057 0 7.99742 0C12.4143 0 15.9948 3.58057 15.9948 7.99742C15.9971 9.77351 15.402 11.4988 14.3054 12.8958ZM7.99742 1.99936C4.68478 1.99936 1.99936 4.68478 1.99936 7.99743C1.99936 11.3101 4.68478 13.9955 7.99742 13.9955C11.3101 13.9955 13.9955 11.3101 13.9955 7.99743C13.9955 4.68478 11.3101 1.99936 7.99742 1.99936Z" fill="#212121"/>
</svg>
